<?xml version="1.0" standalone="no"?>
<!DOCTYPE svg PUBLIC "-//W3C//DTD SVG 20010904//EN"
 "http://www.w3.org/TR/2001/REC-SVG-20010904/DTD/svg10.dtd">
<svg version="1.0" xmlns="http://www.w3.org/2000/svg"
 width="2048.000000pt" height="2048.000000pt" viewBox="0 0 2048.000000 2048.000000"
 preserveAspectRatio="xMidYMid meet">
<metadata>
Created by potrace 1.14, written by Peter Selinger 2001-2017
</metadata>
<g transform="translate(0.000000,2048.000000) scale(0.100000,-0.100000)"
fill="#000000" stroke="none">
<path d="M1326 18565 c-23 -35 -38 -145 -47 -335 -5 -102 -12 -210 -15 -241
-6 -54 -5 -56 32 -88 34 -30 41 -33 78 -26 23 4 4032 9 8911 11 4879 2 8878 4
8887 4 9 0 30 12 47 26 26 22 31 33 31 72 0 26 -5 63 -11 82 -6 19 -12 96 -13
170 -4 154 -27 279 -60 316 l-21 24 -8903 3 c-8893 2 -8903 2 -8916 -18z"/>
<path d="M9185 17336 c-27 -24 -63 -58 -80 -75 -16 -17 -53 -55 -81 -84 -98
-99 -144 -214 -144 -356 0 -58 69 -292 110 -371 30 -58 282 -289 358 -329 15
-8 44 -29 64 -47 21 -18 61 -45 90 -60 29 -15 76 -42 104 -60 28 -19 76 -43
106 -53 30 -10 68 -26 85 -34 16 -9 57 -19 91 -23 57 -6 66 -10 112 -57 27
-27 50 -58 50 -69 0 -48 -169 -126 -348 -160 -168 -32 -201 -61 -169 -153 21
-61 47 -69 212 -69 134 1 143 2 210 32 157 68 303 89 396 57 69 -24 88 -36
110 -72 12 -18 33 -40 48 -47 42 -22 139 -53 208 -66 40 -8 81 -25 115 -48 29
-19 69 -38 88 -42 19 -4 47 -11 62 -15 26 -7 30 -3 65 55 21 34 50 78 66 97
54 71 47 101 -31 127 -26 9 -64 30 -85 47 -20 17 -58 37 -83 46 -35 12 -57 30
-102 85 -94 116 -94 116 -77 177 11 37 35 73 81 126 36 41 69 75 74 75 9 0 95
-28 180 -59 47 -17 58 -18 80 -6 47 24 52 38 45 110 -8 72 -25 96 -116 162
-167 122 -163 116 -125 189 22 42 44 66 95 102 36 25 105 75 154 110 l87 64
26 87 c15 47 35 102 45 121 36 66 19 95 -63 108 -55 8 -59 7 -175 -45 -65 -30
-126 -64 -136 -76 -50 -59 -83 -90 -118 -107 -42 -22 -172 -128 -320 -261 -53
-48 -106 -90 -117 -93 -52 -17 -190 81 -314 222 -162 184 -220 256 -244 305
-32 63 -122 168 -169 197 -18 11 -52 49 -74 84 -22 35 -54 74 -70 86 -17 12
-43 42 -57 67 l-27 45 -23 -30 c-28 -35 -75 -56 -107 -49 -12 4 -41 22 -64 42
-23 19 -43 35 -45 35 -1 -1 -25 -20 -53 -44z"/>
<path d="M3095 16245 c-5 -2 -344 -6 -752 -7 -736 -3 -742 -3 -770 -24 -23
-18 -29 -32 -37 -85 -8 -63 -8 -63 23 -91 17 -16 43 -28 59 -29 383 -7 1514
-10 3862 -9 3193 2 3536 3 3565 15 30 12 75 45 75 55 0 15 -145 132 -188 152
-43 19 -76 20 -2095 18 -1129 -2 -2113 -3 -2187 -3 -74 -1 -452 2 -840 6 -388
4 -709 5 -715 2z"/>
<path d="M11550 16240 c-151 -5 -167 -8 -201 -37 -15 -13 -15 -20 -4 -69 14
-63 34 -88 89 -116 39 -20 57 -20 1050 -18 556 1 2199 2 3651 2 1452 0 2671 4
2709 7 58 6 72 11 92 34 21 25 23 35 18 85 -4 40 -13 64 -29 81 -34 35 178 32
-3210 32 -643 -1 -1809 1 -2590 2 -781 1 -1490 0 -1575 -3z"/>
<path d="M2515 15778 c-214 -3 -487 -4 -605 -1 -322 8 -370 -6 -370 -115 0
-75 16 -97 82 -113 42 -10 752 -13 3428 -14 1856 -1 3553 1 3770 4 431 7 432
8 479 68 33 41 55 53 118 64 60 10 133 37 133 49 0 3 -16 14 -36 24 -78 37
234 34 -4599 39 -1105 1 -2185 -1 -2400 -5z"/>
<path d="M11239 15760 c-114 -26 -114 -26 -172 -8 -62 19 -78 16 -110 -20 -17
-19 -17 -20 18 -51 20 -17 47 -31 61 -31 16 0 39 -15 68 -44 27 -28 58 -49 87
-57 36 -11 738 -13 3824 -11 2079 1 3804 2 3833 2 46 0 58 4 83 29 25 26 29
37 29 88 0 53 -3 62 -31 89 l-30 29 -2972 1 c-1635 1 -3332 4 -3773 6 l-801 4
-114 -26z"/>
<path d="M2815 15220 c-57 -8 -121 -38 -148 -68 -21 -23 -17 -28 38 -37 53
-10 97 -37 140 -88 l36 -42 37 20 c31 17 39 28 49 69 10 40 10 54 -3 77 -13
25 -80 81 -94 78 -3 -1 -28 -5 -55 -9z"/>
<path d="M5349 15214 c-47 -14 -102 -59 -96 -78 2 -6 26 -17 53 -24 27 -8 75
-34 109 -60 48 -36 71 -48 115 -53 66 -9 70 -5 70 77 0 73 -18 102 -83 133
-50 24 -102 26 -168 5z"/>
<path d="M7741 15217 c-35 -9 -48 -20 -63 -49 l-19 -36 31 -62 31 -62 1 -357
c0 -342 0 -358 -21 -410 -18 -45 -20 -59 -11 -87 18 -54 57 -69 176 -69 88 0
105 3 124 20 40 35 49 71 34 129 -21 76 -17 214 7 318 12 49 26 91 33 94 13 5
102 -8 186 -26 50 -11 60 -10 113 10 41 15 79 41 126 86 86 80 108 135 96 239
l-7 69 -76 77 c-73 73 -80 77 -150 94 -86 20 -124 15 -205 -27 -61 -33 -61
-48 -1 -48 21 0 39 -10 61 -32 37 -40 48 -60 71 -135 l18 -58 -37 -94 c-21
-52 -44 -101 -53 -109 -15 -16 -131 -36 -147 -26 -5 3 -19 24 -30 46 -18 36
-21 57 -20 175 1 93 7 148 17 176 8 23 18 50 21 59 9 31 -6 67 -36 83 -40 20
-213 28 -270 12z"/>
<path d="M11300 15224 c-49 -9 -78 -26 -89 -50 -15 -35 -14 -44 14 -105 l24
-54 -4 -362 c-3 -305 -7 -372 -21 -416 -20 -64 -12 -100 30 -131 24 -19 42
-21 153 -21 124 0 125 0 149 28 30 35 30 66 3 137 -19 48 -21 70 -17 175 4 97
9 128 27 162 l21 42 47 -30 c26 -16 64 -34 84 -39 20 -6 53 -21 72 -35 34 -22
37 -23 46 -7 23 44 25 244 1 281 -6 10 -17 8 -52 -13 -24 -14 -63 -32 -86 -40
-24 -9 -57 -25 -74 -38 l-31 -21 -18 22 c-29 35 -39 87 -39 197 0 87 3 107 26
151 19 40 32 53 54 58 17 4 32 10 35 15 5 9 -53 58 -93 79 -24 13 -217 23
-262 15z"/>
<path d="M11890 15223 c-8 -3 -34 -24 -57 -46 l-42 -41 97 -48 c53 -27 115
-67 138 -89 l41 -40 25 30 c48 56 45 168 -4 208 -26 22 -161 39 -198 26z"/>
<path d="M12823 15200 c-67 -38 -76 -56 -67 -128 3 -31 8 -60 10 -64 3 -4 20
0 39 8 19 8 44 14 56 14 12 0 50 20 85 45 63 46 79 50 147 38 32 -5 42 -13 60
-47 21 -40 22 -52 25 -401 3 -266 0 -376 -9 -420 -15 -68 -14 -89 8 -121 23
-35 74 -47 177 -42 107 6 132 17 152 65 14 32 13 40 -7 100 -21 64 -21 73 -14
417 8 377 8 380 63 439 25 26 26 29 12 55 -26 46 -93 62 -247 59 -118 -2 -134
-4 -162 -24 -44 -33 -125 -32 -161 2 -16 16 -42 27 -70 30 -38 5 -53 1 -97
-25z"/>
<path d="M14983 15220 c-42 -10 -79 -34 -99 -65 -15 -22 -14 -27 15 -82 17
-32 36 -76 41 -98 5 -22 21 -53 35 -69 13 -16 27 -37 30 -47 6 -18 30 -25 100
-31 28 -3 32 -9 76 -123 25 -66 55 -136 68 -156 12 -20 35 -73 51 -118 35 -96
118 -246 154 -280 l26 -25 27 20 c35 27 129 185 147 248 23 81 36 154 30 170
-3 8 -25 17 -48 20 -28 5 -52 16 -68 34 -35 38 -114 186 -142 268 -13 38 -39
101 -59 139 -19 39 -43 87 -52 108 -10 20 -29 46 -44 56 -49 34 -205 51 -288
31z"/>
<path d="M2285 15214 c-50 -12 -77 -29 -91 -56 -15 -28 -14 -32 5 -52 11 -11
25 -34 31 -51 17 -43 16 -753 0 -818 -15 -57 -7 -103 22 -134 20 -22 29 -23
148 -23 118 0 128 1 148 23 36 38 43 71 29 135 -10 44 -12 145 -8 432 l6 375
31 45 c29 41 31 48 19 71 -23 42 -59 53 -195 55 -69 2 -134 0 -145 -2z"/>
<path d="M3254 15210 c-21 -7 -37 -21 -48 -45 -16 -33 -16 -37 8 -92 24 -58
24 -61 25 -413 1 -341 0 -357 -21 -416 -20 -57 -21 -64 -7 -100 22 -57 52 -68
184 -69 89 0 116 3 137 17 42 27 49 73 26 155 -16 56 -19 89 -15 184 6 144 18
171 84 193 61 21 180 21 255 0 81 -23 97 -54 104 -207 5 -93 3 -122 -13 -172
-23 -71 -16 -113 23 -144 23 -18 41 -21 138 -21 128 0 153 9 179 63 18 36 18
38 -3 102 -21 62 -21 74 -15 417 6 325 8 358 28 415 l22 62 -21 28 c-29 39
-74 52 -182 52 -105 1 -149 -12 -176 -54 -18 -27 -18 -30 -1 -86 23 -74 18
-276 -8 -326 -34 -65 -224 -100 -328 -60 -63 24 -79 61 -86 198 -5 86 -2 122
13 179 20 78 17 89 -30 124 -23 18 -44 21 -134 23 -59 1 -121 -2 -138 -7z"/>
<path d="M4731 15208 c-13 -7 -33 -25 -44 -40 -20 -26 -20 -29 -4 -79 15 -44
17 -104 17 -428 0 -236 -4 -389 -11 -411 -13 -45 -13 -103 1 -129 22 -43 56
-50 197 -42 143 8 157 13 172 66 7 27 4 47 -16 102 -23 62 -24 77 -18 168 7
109 23 155 63 181 l26 17 58 -63 c54 -58 60 -62 83 -52 44 20 59 57 63 157 5
103 -3 126 -51 155 l-31 19 -61 -66 -61 -67 -38 35 c-34 31 -38 41 -46 104
-20 151 -10 205 48 267 22 24 24 31 14 52 -23 51 -55 61 -202 64 -96 2 -142
-1 -159 -10z"/>
<path d="M8900 15211 c-47 -10 -57 -17 -75 -50 -13 -25 -12 -34 4 -77 17 -44
19 -85 20 -419 0 -300 -3 -381 -15 -428 -12 -45 -13 -66 -4 -92 20 -60 37 -68
172 -73 115 -4 125 -3 150 17 38 30 43 75 23 178 -22 109 -15 215 21 321 21
65 23 77 11 91 -40 45 -47 78 -47 220 0 118 3 147 21 187 25 59 15 88 -36 110
-41 17 -194 26 -245 15z"/>
<path d="M10036 15211 c-54 -6 -73 -13 -88 -31 -23 -28 -23 -43 2 -108 19 -50
20 -69 14 -425 -5 -341 -7 -376 -25 -418 -19 -43 -19 -49 -6 -82 23 -54 46
-62 177 -62 130 1 163 11 193 62 19 32 18 33 -3 60 -49 62 -50 73 -50 454 0
340 1 361 21 415 17 44 19 61 11 80 -24 50 -110 70 -246 55z"/>
<path d="M14215 15213 c-36 -6 -52 -18 -70 -53 -12 -24 -11 -35 6 -91 17 -53
20 -80 15 -159 -3 -52 -6 -210 -7 -350 0 -197 -3 -269 -15 -315 -12 -46 -13
-68 -5 -96 20 -66 35 -72 180 -73 112 -1 131 1 149 17 30 28 41 83 25 137 -10
32 -14 145 -17 415 -3 334 -1 376 15 430 20 67 14 88 -37 121 -25 17 -175 28
-239 17z"/>
<path d="M15994 15209 c-61 -14 -92 -53 -110 -135 -8 -38 -14 -94 -14 -125 l0
-55 42 -10 c38 -8 43 -13 50 -44 4 -19 5 -153 2 -298 -4 -223 -7 -269 -23
-309 -23 -58 -12 -116 27 -141 36 -23 223 -22 269 1 47 25 59 66 43 141 -10
45 -14 154 -14 426 1 350 1 367 22 420 20 49 20 56 6 78 -31 47 -71 62 -169
61 -49 -1 -108 -5 -131 -10z"/>
<path d="M16696 15205 c-21 -7 -43 -20 -48 -27 -27 -41 -28 -48 -9 -100 17
-47 20 -93 25 -416 5 -351 5 -365 -16 -419 -17 -48 -19 -61 -9 -94 20 -65 44
-74 201 -74 151 0 161 3 180 61 10 30 8 41 -17 91 -26 55 -28 65 -27 183 1 90
6 136 18 163 8 21 19 37 23 35 43 -22 125 -58 132 -58 4 0 29 -18 54 -40 l46
-41 18 33 c26 49 26 271 0 312 l-18 27 -48 -44 c-27 -26 -62 -48 -82 -52 -19
-4 -51 -16 -71 -26 l-37 -19 -18 32 c-12 25 -18 66 -21 160 -4 115 -2 131 18
172 14 30 30 48 46 52 13 3 24 10 24 14 0 17 -77 65 -124 77 -65 17 -190 16
-240 -2z"/>
<path d="M17314 15206 c-17 -8 -41 -27 -52 -44 l-22 -30 23 -15 c12 -8 50 -28
83 -45 37 -19 75 -47 94 -72 37 -47 48 -49 80 -15 18 19 24 39 27 92 4 60 2
71 -19 96 -36 43 -150 61 -214 33z"/>
<path d="M1886 15175 c-33 -32 -37 -42 -32 -69 7 -34 32 -73 58 -90 13 -7 27
0 68 37 32 28 68 51 93 57 74 19 74 20 52 36 -43 33 -100 56 -150 61 -50 5
-53 4 -89 -32z"/>
<path d="M13669 15195 c-14 -7 -30 -25 -37 -39 -12 -28 -6 -34 80 -75 25 -12
63 -42 83 -67 l37 -45 23 21 c14 13 27 44 35 80 11 53 11 62 -5 87 -10 16 -26
33 -34 40 -22 17 -150 16 -182 -2z"/>
<path d="M18015 15175 c-79 -26 -81 -28 -125 -96 -25 -38 -42 -80 -50 -122
-11 -60 -10 -67 16 -133 22 -55 41 -82 93 -131 54 -52 94 -77 239 -150 206
-103 242 -127 277 -187 30 -51 28 -85 -6 -144 -26 -45 -12 -79 35 -87 19 -4
43 -4 53 -1 23 7 120 99 150 142 29 41 39 137 23 216 -12 55 -21 69 -84 136
-63 66 -85 81 -206 142 -74 37 -160 75 -190 86 -41 14 -69 34 -113 79 -75 78
-78 92 -33 154 40 55 44 71 19 93 -29 24 -35 25 -98 3z"/>
<path d="M9316 15165 c-14 -13 -26 -28 -26 -32 0 -4 19 -18 43 -31 52 -27 76
-65 93 -147 12 -59 12 -64 -19 -150 -32 -89 -33 -90 -87 -119 l-55 -30 35 -15
c19 -8 67 -16 107 -19 67 -4 75 -2 138 33 89 50 129 93 160 174 l27 67 -17 60
c-25 83 -99 175 -170 208 -43 21 -69 26 -128 26 -65 0 -77 -3 -101 -25z"/>
<path d="M18506 15175 c-21 -8 -46 -21 -54 -29 -15 -14 -14 -18 10 -43 14 -16
35 -47 47 -70 26 -53 34 -57 77 -43 39 13 54 40 54 99 0 40 -13 58 -65 84 -26
13 -36 13 -69 2z"/>
<path d="M6813 15163 l-52 -4 -32 -67 c-17 -37 -47 -100 -66 -140 -19 -39 -41
-97 -49 -128 -13 -51 -13 -59 1 -80 14 -21 23 -24 85 -24 62 0 71 -3 89 -25
35 -45 54 -190 32 -248 -10 -27 1 -37 39 -37 22 0 98 -81 104 -112 3 -13 10
-47 16 -77 6 -29 19 -66 30 -81 52 -73 279 -83 338 -15 29 34 28 66 -3 95 -25
24 -263 494 -285 565 -7 22 -32 78 -55 125 -24 47 -50 108 -59 137 -18 55 -54
116 -71 118 -5 1 -33 0 -62 -2z"/>
<path d="M15706 14674 c-4 -19 -4 -45 0 -57 7 -21 7 -21 15 -2 11 28 11 83 0
89 -5 3 -12 -10 -15 -30z"/>
<path d="M6490 14583 c-19 -47 -47 -101 -62 -120 -14 -18 -36 -65 -47 -103
-15 -50 -29 -74 -48 -87 -14 -10 -41 -33 -59 -51 l-33 -32 14 -47 c21 -68 30
-74 99 -65 87 11 101 33 101 164 0 111 4 119 76 138 21 6 53 17 73 25 l35 15
-19 33 c-11 18 -26 63 -33 100 -14 63 -39 117 -55 117 -4 0 -23 -39 -42 -87z"/>
<path d="M14992 14588 c-15 -59 -15 -155 -1 -197 19 -53 29 -17 28 99 -1 129
-10 165 -27 98z"/>
<path d="M10855 14332 c-16 -19 -45 -41 -64 -49 -19 -8 -56 -33 -83 -55 -41
-35 -47 -45 -41 -67 8 -36 30 -58 69 -71 32 -11 38 -9 98 34 60 42 65 50 72
92 7 51 1 132 -12 143 -5 5 -22 -8 -39 -27z"/>
<path d="M17826 14334 c-3 -9 -6 -49 -6 -89 0 -83 13 -105 69 -124 70 -23 147
-5 171 39 9 17 2 31 -45 93 -50 63 -63 73 -103 84 -65 16 -79 15 -86 -3z"/>
<path d="M5556 14304 c-15 -19 -53 -47 -85 -63 -31 -16 -62 -35 -68 -43 -6 -7
-13 -39 -15 -70 -4 -51 -2 -57 16 -62 36 -10 69 -6 131 13 47 15 66 27 88 57
27 36 28 44 23 98 -6 59 -16 80 -46 96 -12 6 -23 0 -44 -26z"/>
<path d="M17575 14306 c-11 -7 -37 -16 -59 -19 -44 -7 -162 -91 -170 -122 -3
-11 -6 -37 -6 -57 l0 -38 76 0 75 0 50 48 c52 49 68 88 69 165 0 40 -5 44 -35
23z"/>
<path d="M12170 14300 c0 -5 5 -10 10 -10 6 0 10 5 10 10 0 6 -4 10 -10 10 -5
0 -10 -4 -10 -10z"/>
<path d="M12005 14240 c-38 -27 -73 -50 -77 -50 -9 0 -10 -65 -2 -97 6 -21 12
-23 73 -23 73 1 97 14 146 80 35 47 36 125 3 134 -49 13 -75 5 -143 -44z"/>
<path d="M14946 14265 c-59 -28 -80 -61 -70 -110 8 -44 18 -51 81 -57 58 -6
72 4 90 57 8 24 6 41 -10 83 -11 28 -25 52 -31 51 -6 0 -33 -11 -60 -24z"/>
<path d="M4349 13836 c-3 -3 -608 -6 -1343 -6 -895 -1 -1354 -4 -1387 -11 -51
-11 -81 -40 -94 -91 -8 -33 26 -101 62 -125 26 -17 344 -18 6788 -17 3718 1
7008 1 7310 0 303 0 1147 0 1877 -1 l1326 0 25 23 c35 33 61 95 53 126 -4 15
-19 41 -35 59 l-29 32 -7214 1 c-3967 0 -7240 4 -7273 8 -33 4 -63 5 -66 2z"/>
<path d="M2800 13387 c-3 -3 -271 -8 -595 -10 -363 -3 -600 -9 -616 -15 -28
-11 -69 -82 -69 -118 0 -27 34 -80 62 -96 19 -11 290 -13 1458 -12 789 0 1719
1 2065 1 347 0 3582 0 7190 0 4217 0 6571 3 6590 10 17 5 43 27 59 51 l29 41
-17 44 c-9 24 -27 54 -40 66 l-24 22 -653 7 c-360 4 -1005 4 -1434 1 -429 -3
-1790 -3 -3025 0 -2677 7 -2946 7 -7190 1 -1818 -2 -3413 -1 -3545 4 -132 4
-242 6 -245 3z"/>
<path d="M5318 12313 c-43 -2 -78 -7 -78 -12 0 -18 254 -31 415 -21 88 5 199
10 248 10 51 0 87 4 87 10 0 6 -41 10 -103 10 -57 0 -191 2 -298 4 -107 2
-229 2 -271 -1z"/>
<path d="M6430 12310 c-68 -4 -91 -8 -80 -15 10 -7 387 -9 1095 -7 594 2 1244
-2 1444 -7 260 -8 406 -8 510 0 217 17 222 16 282 -18 60 -34 60 -34 88 -128
18 -59 23 -115 32 -345 5 -151 13 -309 17 -350 l7 -75 8 109 c4 60 7 182 8
270 1 89 4 224 8 301 7 151 -5 225 -37 225 -9 0 -26 10 -39 22 l-23 21 -1612
1 c-887 1 -1656 -1 -1708 -4z"/>
<path d="M2374 12297 c-5 -14 11 -67 21 -67 8 0 64 64 65 73 0 13 -80 8 -86
-6z"/>
<path d="M4209 12298 c16 -17 309 -16 337 0 14 9 -26 11 -165 12 -148 0 -182
-2 -172 -12z"/>
<path d="M10907 12221 c-26 -4 -54 -14 -63 -23 -15 -14 -12 -21 29 -81 54 -80
72 -145 62 -231 l-6 -64 37 -28 36 -28 23 26 c19 23 23 40 27 144 6 136 23
191 71 228 l30 24 -52 16 c-69 20 -134 26 -194 17z"/>
<path d="M11393 12220 c-52 -11 -84 -27 -101 -52 -7 -10 -28 -25 -45 -34 -44
-23 -47 -29 -47 -107 0 -79 21 -133 56 -149 13 -6 26 -19 29 -28 3 -9 21 -31
39 -49 32 -31 38 -33 80 -27 30 5 50 14 56 26 14 27 14 28 -22 44 -18 7 -42
22 -53 32 -11 11 -32 27 -47 37 -16 10 -28 23 -28 30 0 7 18 49 40 95 35 71
46 86 77 98 73 31 132 -4 153 -90 6 -22 18 -54 26 -69 15 -27 15 -29 -21 -73
-20 -24 -52 -52 -71 -62 -30 -16 -33 -20 -21 -35 7 -10 31 -21 55 -24 50 -7
84 12 113 62 28 47 56 51 94 12 67 -70 69 -71 107 -51 18 9 58 34 88 55 30 21
75 45 100 54 63 22 146 82 160 116 17 41 5 77 -43 121 -59 55 -92 70 -164 76
-89 7 -146 -12 -210 -70 -61 -55 -97 -62 -131 -25 -12 13 -22 28 -22 33 0 6
-10 20 -22 31 -18 17 -40 23 -103 27 -44 3 -99 1 -122 -4z"/>
<path d="M14357 12201 c-74 -36 -95 -56 -107 -100 -9 -33 -7 -38 22 -68 18
-18 39 -33 47 -33 9 0 35 -9 59 -20 29 -13 42 -25 42 -40 0 -30 -35 -59 -80
-66 -26 -4 -41 -13 -45 -25 -9 -28 0 -36 46 -44 23 -4 60 -16 83 -26 58 -26
103 -23 181 12 l68 30 -6 56 c-6 53 -10 61 -70 122 l-65 66 23 35 c13 19 27
47 30 61 9 36 -23 54 -105 62 -58 5 -71 3 -123 -22z"/>
<path d="M13088 12202 c-49 -29 -61 -98 -47 -254 12 -129 13 -131 47 -165 l35
-35 113 4 c62 1 117 8 123 13 5 6 12 25 16 43 6 29 2 37 -32 70 -63 60 -64 62
-52 128 12 68 49 137 86 161 l26 17 -79 18 c-103 23 -200 23 -236 0z"/>
<path d="M13802 12192 c-15 -16 -39 -48 -54 -71 -15 -22 -32 -41 -36 -41 -11
0 -102 91 -102 102 0 4 -11 8 -25 8 -54 0 -60 -86 -14 -205 17 -44 38 -99 46
-122 9 -24 33 -59 55 -78 l39 -36 30 22 c17 12 36 35 44 53 38 92 46 107 54
101 5 -3 17 -27 27 -53 24 -63 39 -86 68 -102 22 -11 30 -10 69 13 24 14 49
32 55 40 7 8 26 67 42 132 32 127 31 173 -8 208 -17 16 -22 13 -76 -38 -32
-30 -62 -52 -67 -49 -6 3 -23 30 -40 59 -16 29 -41 61 -55 70 -24 15 -26 15
-52 -13z"/>
<path d="M2287 12203 c-9 -8 -9 -107 -1 -116 3 -3 19 20 35 50 23 44 27 58 17
65 -16 9 -42 10 -51 1z"/>
<path d="M12519 12178 c-11 -25 -13 -73 -11 -198 4 -213 12 -226 93 -138 l48
52 53 -36 c62 -42 171 -98 192 -98 8 0 28 14 45 31 l31 31 0 124 c0 119 -1
127 -30 184 -17 33 -36 60 -44 60 -7 0 -19 -14 -26 -30 -12 -30 -72 -90 -90
-90 -4 0 -30 27 -57 59 -53 66 -55 67 -134 76 l-56 7 -14 -34z"/>
<path d="M2287 11870 c-12 -209 -8 -2669 5 -2640 10 24 24 1336 17 1620 -4
151 -4 416 0 670 1 113 -1 266 -6 340 l-8 135 -8 -125z"/>
<path d="M6275 11486 c-15 -11 -15 -14 2 -35 17 -20 22 -22 41 -12 29 15 28
35 -2 49 -18 8 -28 8 -41 -2z"/>
<path d="M6380 11421 c-27 -7 -25 3 -29 -202 -1 -14 -11 -42 -24 -60 -20 -30
-23 -44 -19 -100 6 -91 -4 -104 -91 -130 -100 -30 -151 -54 -195 -88 -51 -40
-87 -49 -210 -57 -71 -4 -122 -13 -152 -26 -52 -22 -170 -98 -170 -109 0 -9
21 -15 80 -24 25 -3 74 -20 110 -38 l65 -32 -3 -70 c-2 -69 -23 -194 -45 -268
-8 -31 -19 -43 -56 -62 -25 -12 -62 -26 -81 -30 -67 -15 -99 -36 -110 -74 -5
-20 -10 -41 -10 -47 0 -17 -32 -42 -62 -49 -33 -8 -35 -16 -8 -40 11 -10 22
-33 26 -52 7 -35 36 -63 66 -63 10 0 56 20 101 44 45 24 100 49 123 55 23 6
61 28 85 50 57 50 164 77 274 68 85 -6 131 -24 202 -77 l52 -40 120 0 c108 0
126 -3 178 -26 32 -14 81 -33 108 -41 28 -8 75 -30 105 -48 31 -19 84 -47 120
-64 44 -21 81 -49 121 -92 45 -48 61 -60 76 -54 10 4 38 15 63 24 61 22 135
102 159 172 16 45 17 64 10 114 -6 34 -18 69 -29 80 -54 58 -60 180 -14 284
41 91 28 180 -49 353 -22 47 -32 58 -63 68 -20 7 -54 31 -76 54 -22 22 -72 59
-111 81 -66 37 -73 45 -108 113 -20 39 -53 90 -72 111 -20 22 -43 53 -52 70
-11 22 -26 33 -58 41 -23 6 -60 16 -81 21 -53 14 -78 32 -99 72 -11 19 -30 40
-43 45 -14 7 -37 39 -59 82 -19 38 -36 70 -38 69 -1 -1 -13 -4 -27 -8z"/>
<path d="M13700 11415 c-8 -9 -31 -25 -53 -36 -21 -11 -37 -23 -34 -25 3 -3
26 -13 53 -23 46 -18 49 -18 106 1 32 11 58 22 58 24 0 2 -19 13 -42 25 -24
12 -50 28 -59 35 -14 13 -18 12 -29 -1z"/>
<path d="M14035 11393 c-16 -9 -52 -22 -78 -28 l-49 -11 84 -12 c65 -9 95 -9
138 1 l55 13 -59 27 c-32 15 -59 27 -60 27 0 -1 -14 -8 -31 -17z"/>
<path d="M14925 11389 c-44 -11 -83 -23 -88 -28 -9 -9 62 -35 127 -46 30 -5
51 -1 88 16 26 12 48 25 48 29 0 5 -87 52 -93 49 -1 -1 -38 -10 -82 -20z"/>
<path d="M11750 11383 c-36 -8 -76 -17 -90 -21 -21 -4 -18 -6 20 -13 25 -4 65
-14 89 -23 51 -19 90 -19 146 -2 28 8 40 17 40 31 0 34 -111 50 -205 28z"/>
<path d="M13155 11394 c-101 -20 -125 -27 -125 -34 0 -15 85 -42 148 -48 56
-4 65 -2 87 18 l25 24 -22 23 c-21 22 -57 28 -113 17z"/>
<path d="M17905 11388 c-61 -21 -61 -30 -1 -60 l55 -28 62 23 c34 12 64 27 66
33 2 7 -23 18 -61 28 -74 18 -80 18 -121 4z"/>
<path d="M14340 11378 c-41 -5 -88 -13 -105 -17 l-30 -9 37 -1 c21 -1 69 -6
108 -13 62 -11 72 -10 87 4 13 14 14 20 3 32 -7 9 -15 15 -19 15 -3 -1 -40 -6
-81 -11z"/>
<path d="M15460 11372 l-22 -18 24 -28 24 -28 57 28 c57 28 57 28 104 11 59
-21 86 -21 188 2 74 17 77 19 45 25 -152 27 -159 27 -220 11 -45 -12 -70 -13
-93 -6 -70 21 -85 21 -107 3z"/>
<path d="M16138 11376 c-25 -6 -49 -14 -53 -18 -11 -10 101 -21 119 -11 15 8
15 11 -1 24 -15 13 -26 13 -65 5z"/>
<path d="M17085 11380 c-16 -4 -67 -8 -112 -9 -45 0 -85 -5 -88 -11 -4 -6 17
-10 57 -10 35 0 92 -9 126 -19 l64 -20 51 23 c52 23 52 24 26 34 -41 16 -91
21 -124 12z"/>
<path d="M12843 11370 c-60 -9 -60 -15 -1 -28 42 -10 62 -9 98 2 43 13 44 14
18 20 -54 12 -74 13 -115 6z"/>
<path d="M11125 11360 c-4 -6 22 -10 72 -10 54 0 73 3 63 10 -20 13 -127 13
-135 0z"/>
<path d="M12300 11358 c0 -9 47 -18 90 -17 97 1 332 16 310 19 -44 7 -400 5
-400 -2z"/>
<path d="M17435 11360 c-23 -6 -16 -8 35 -9 45 0 60 2 50 9 -17 11 -42 11 -85
0z"/>
<path d="M9813 11280 c-27 -192 -28 -237 -19 -880 6 -399 18 -665 31 -678 18
-18 27 1503 9 1593 l-10 50 -11 -85z"/>
<path d="M4375 11035 c-16 -8 -52 -16 -80 -20 -129 -18 -191 -36 -253 -77 -35
-22 -59 -44 -55 -48 19 -17 185 -50 253 -51 90 0 141 -16 155 -47 5 -12 14
-21 20 -19 28 10 30 225 2 260 -10 12 -17 13 -42 2z"/>
<path d="M16705 10907 c-32 -8 -50 -17 -50 -27 0 -12 21 -15 125 -15 94 -1
138 -5 178 -19 l54 -18 29 28 30 29 -23 19 c-19 15 -32 17 -78 11 -69 -9 -81
-9 -155 -2 -35 4 -81 1 -110 -6z"/>
<path d="M11696 10897 c-17 -12 -17 -16 -2 -50 8 -20 19 -37 24 -37 4 0 24 16
42 35 29 30 32 37 20 45 -8 5 -20 10 -27 10 -6 0 -17 2 -25 5 -7 3 -22 -1 -32
-8z"/>
<path d="M11905 10896 l-30 -14 35 -15 c31 -13 43 -13 108 1 52 11 83 13 110
6 35 -9 37 -11 42 -57 3 -26 8 -47 13 -47 4 0 17 0 28 0 20 0 21 4 15 41 -11
70 -17 75 -98 82 -40 4 -100 9 -133 12 -41 4 -70 1 -90 -9z"/>
<path d="M14020 10898 c-34 -11 -34 -11 -10 -18 36 -11 162 -11 179 -1 12 8
10 11 -10 15 -57 12 -127 13 -159 4z"/>
<path d="M15098 10903 c-21 -5 -23 -19 -6 -29 6 -4 52 -11 102 -15 95 -8 116
-19 116 -64 0 -29 42 -47 87 -39 19 4 37 13 40 21 9 23 -23 81 -54 96 -41 21
-240 42 -285 30z"/>
<path d="M16005 10898 c-22 -5 -68 -7 -102 -5 -34 3 -73 2 -88 0 l-26 -6 21
-22 21 -22 57 20 58 20 54 -25 c30 -15 78 -29 105 -33 28 -4 58 -9 67 -11 12
-4 23 7 38 35 20 40 20 40 1 51 -24 12 -152 12 -206 -2z"/>
<path d="M17669 10897 c-29 -4 -54 -9 -56 -10 -2 -2 20 -14 47 -27 47 -22 55
-23 109 -12 31 7 114 12 183 12 99 0 128 3 138 15 7 8 11 16 9 17 -14 7 -388
11 -430 5z"/>
<path d="M10870 10892 c-6 -2 -8 -8 -4 -13 3 -5 38 -9 77 -9 40 0 97 -7 126
-15 32 -8 59 -11 65 -6 6 5 34 16 61 24 l50 16 -35 2 c-54 4 -329 4 -340 1z"/>
<path d="M13105 10890 c-18 -7 -18 -8 7 -15 15 -4 40 -2 55 3 24 9 25 11 6 11
-12 1 -27 3 -35 5 -7 3 -22 1 -33 -4z"/>
<path d="M15536 10891 c-17 -7 -17 -9 9 -29 36 -28 66 -28 94 2 19 21 20 24 6
30 -22 8 -85 7 -109 -3z"/>
<path d="M17475 10888 c-3 -7 -2 -25 3 -41 l7 -27 54 33 53 34 -38 6 c-57 10
-74 8 -79 -5z"/>
<path d="M13347 10863 c-11 -11 -8 -91 4 -99 21 -12 31 13 24 60 -7 44 -14 54
-28 39z"/>
<path d="M4579 10703 c-47 -3 -58 -7 -62 -24 -8 -29 -1 -41 36 -64 17 -11 38
-33 47 -50 8 -16 20 -34 25 -38 12 -9 116 0 128 12 4 4 14 32 22 60 21 79 8
101 -61 101 -29 0 -58 1 -66 3 -7 2 -38 1 -69 0z"/>
<path d="M11612 10431 l-73 -16 78 -28 c43 -15 85 -27 94 -27 8 0 27 13 42 28
l27 28 -35 17 c-42 20 -39 20 -133 -2z"/>
<path d="M12136 10421 c-17 -6 -15 -9 13 -21 25 -10 37 -10 58 -1 22 10 24 14
12 22 -17 10 -56 11 -83 0z"/>
<path d="M13582 10421 c-10 -6 -10 -10 2 -20 10 -9 16 -9 21 -1 10 16 -7 31
-23 21z"/>
<path d="M14396 10421 c-19 -7 -18 -8 4 -24 22 -15 25 -15 52 1 25 14 26 17
11 24 -23 9 -43 8 -67 -1z"/>
<path d="M14762 10422 c-11 -7 -11 -11 0 -19 9 -7 29 -6 63 2 49 12 49 13 13
14 -20 0 -42 3 -50 6 -7 3 -19 1 -26 -3z"/>
<path d="M12630 10413 c1 -5 6 -18 13 -31 13 -22 14 -22 29 -5 32 37 31 43 -6
43 -20 0 -36 -3 -36 -7z"/>
<path d="M15679 10408 c23 -6 37 -6 44 1 8 8 -2 11 -33 10 l-45 -1 34 -10z"/>
<path d="M16650 10410 c0 -13 11 -13 30 0 12 8 11 10 -7 10 -13 0 -23 -4 -23
-10z"/>
<path d="M12008 9960 l-57 -15 32 -22 c64 -43 85 -48 108 -27 40 36 41 49 6
65 -28 13 -39 13 -89 -1z"/>
<path d="M12995 9950 c-15 -24 9 -33 72 -27 94 9 108 23 33 30 -84 9 -98 9
-105 -3z"/>
<path d="M14294 9947 c-3 -8 -1 -36 4 -63 l8 -49 32 55 32 55 -23 7 c-36 10
-47 9 -53 -5z"/>
<path d="M15060 9883 c-53 -19 -46 -13 -54 -40 -7 -23 -6 -23 78 -23 47 0 86
3 86 6 0 16 -43 74 -53 73 -7 0 -32 -8 -57 -16z"/>
<path d="M16541 9868 c-1 -21 4 -38 9 -38 11 0 11 14 0 50 -7 22 -8 21 -9 -12z"/>
<path d="M18165 9888 c-33 -18 -65 -50 -59 -59 6 -11 101 -12 108 -1 4 7 -19
72 -26 72 -2 0 -12 -6 -23 -12z"/>
<path d="M10872 9861 c-12 -35 -8 -41 30 -41 33 0 34 3 11 41 -22 36 -28 36
-41 0z"/>
<path d="M11310 9860 c-19 -15 -33 -30 -30 -33 10 -9 77 -15 88 -8 13 8 2 63
-14 68 -5 1 -25 -11 -44 -27z"/>
<path d="M15555 9865 c-5 -1 -36 -8 -67 -15 -63 -13 -77 -30 -25 -30 18 0 56
-6 85 -14 46 -12 58 -11 97 3 25 9 45 19 45 22 0 19 -102 45 -135 34z"/>
<path d="M17220 9840 c-13 -9 -13 -11 0 -20 18 -11 37 -12 65 -1 19 8 19 8 -2
19 -26 14 -43 15 -63 2z"/>
<path d="M17473 9844 c-28 -12 -11 -24 32 -24 25 0 45 5 45 10 0 6 -6 10 -12
10 -7 0 -22 2 -33 5 -11 2 -26 2 -32 -1z"/>
<path d="M12290 9830 c0 -5 11 -10 25 -10 14 0 25 5 25 10 0 6 -11 10 -25 10
-14 0 -25 -4 -25 -10z"/>
<path d="M14520 9830 c0 -13 90 -13 110 0 11 7 -3 10 -47 10 -36 0 -63 -4 -63
-10z"/>
<path d="M15818 9833 c6 -2 18 -2 25 0 6 3 1 5 -13 5 -14 0 -19 -2 -12 -5z"/>
<path d="M16060 9830 c0 -5 7 -10 15 -10 8 0 15 5 15 10 0 6 -7 10 -15 10 -8
0 -15 -4 -15 -10z"/>
<path d="M10865 9380 c-20 -22 -20 -22 0 -36 19 -14 49 -12 115 6 24 7 24 8
-14 24 -67 28 -80 29 -101 6z"/>
<path d="M15081 9378 l-34 -22 42 -14 c37 -12 45 -12 57 0 12 12 12 17 -2 36
-19 27 -21 27 -63 0z"/>
<path d="M15465 9378 c-14 -21 -14 -24 4 -32 20 -8 177 1 168 11 -4 3 -141 42
-154 43 -1 0 -9 -10 -18 -22z"/>
<path d="M11776 9369 c-62 -15 -56 -19 25 -19 67 1 72 2 55 15 -22 17 -25 17
-80 4z"/>
<path d="M12510 9367 c-20 -8 -22 -11 -7 -14 26 -7 47 1 39 13 -5 8 -14 9 -32
1z"/>
<path d="M13762 9370 c-18 -4 -35 -10 -38 -13 -9 -8 111 -18 145 -11 l33 7
-23 13 c-26 15 -67 16 -117 4z"/>
<path d="M11470 9360 c0 -5 10 -10 23 -10 18 0 19 2 7 10 -19 13 -30 13 -30 0z"/>
<path d="M12289 9359 c-10 -6 -4 -9 19 -9 17 0 32 2 32 4 0 9 -39 13 -51 5z"/>
<path d="M12880 9360 c0 -5 17 -10 38 -10 27 0 33 3 22 10 -20 13 -60 13 -60
0z"/>
<path d="M13570 9360 c-10 -7 10 -9 65 -9 69 1 75 2 40 10 -54 11 -87 11 -105
-1z"/>
<path d="M15942 9361 c-20 -13 6 -19 43 -10 17 4 22 7 13 8 -9 0 -22 3 -30 6
-7 3 -19 1 -26 -4z"/>
<path d="M16150 9360 c-16 -5 17 -8 90 -9 78 0 110 2 100 9 -18 11 -154 11
-190 0z"/>
<path d="M17165 9361 c-25 -10 67 -19 111 -11 24 5 26 7 11 13 -24 9 -96 8
-122 -2z"/>
<path d="M17875 9359 c-53 -3 -12 -6 123 -7 111 -1 202 2 202 6 0 10 -200 10
-325 1z"/>
<path d="M7097 8968 c-8 -29 -20 -75 -27 -101 -9 -34 -23 -57 -46 -75 l-32
-26 43 -27 c24 -15 46 -37 50 -49 7 -22 92 -128 144 -182 28 -27 41 -49 65
-110 9 -24 25 -42 43 -50 40 -17 73 -49 73 -70 0 -33 20 -59 56 -74 37 -16 42
-34 20 -92 l-12 -33 -17 35 c-13 29 -25 38 -62 48 -25 7 -45 15 -45 19 0 17
-57 73 -86 85 -20 9 -41 29 -56 56 -13 25 -39 51 -62 64 -21 12 -48 39 -60 60
-12 21 -38 48 -59 60 -21 11 -48 35 -61 53 -27 36 -114 103 -166 127 -32 15
-37 15 -69 -2 -49 -27 -217 -198 -259 -264 -20 -30 -53 -75 -74 -100 -72 -85
-123 -148 -141 -174 -10 -15 -36 -38 -57 -51 -32 -20 -42 -35 -61 -92 -16 -49
-35 -81 -69 -118 -26 -27 -57 -71 -68 -97 -11 -26 -30 -53 -42 -60 -12 -7 -30
-30 -41 -50 -33 -64 -136 -174 -178 -191 -28 -11 -51 -34 -85 -81 -26 -36 -56
-71 -67 -76 -11 -6 -45 -46 -76 -88 -31 -42 -93 -115 -139 -162 -46 -47 -103
-105 -127 -130 -24 -25 -56 -70 -71 -100 -15 -32 -42 -67 -64 -83 -20 -15 -71
-59 -112 -96 -42 -38 -101 -80 -132 -95 -31 -15 -63 -37 -71 -50 -9 -13 -41
-32 -75 -44 -75 -28 -103 -50 -159 -126 -35 -47 -58 -67 -104 -89 -33 -16 -67
-26 -75 -23 -17 6 -18 49 -3 79 23 44 123 150 151 159 15 6 28 14 28 20 0 5
27 38 60 72 33 35 60 69 60 76 0 20 147 158 193 181 27 14 44 34 61 70 14 27
36 59 49 69 24 19 47 95 62 202 5 38 13 53 39 73 24 18 35 38 44 76 7 28 12
60 12 71 0 18 51 145 84 208 7 14 30 77 49 141 23 72 47 129 66 152 15 20 34
58 40 83 17 66 38 103 82 146 26 26 40 50 44 75 12 71 38 126 82 172 40 43 43
49 37 86 -3 22 -15 48 -25 57 -14 11 -19 27 -17 45 3 27 6 28 61 31 44 2 59 7
64 20 3 9 14 36 25 60 21 46 21 74 -4 172 l-14 55 -63 8 c-75 11 -95 -2 -104
-66 -12 -83 -27 -118 -58 -135 -20 -12 -35 -34 -50 -72 -11 -30 -35 -71 -54
-90 -34 -36 -67 -100 -79 -158 -4 -17 -22 -43 -39 -57 -18 -15 -41 -43 -52
-63 -15 -28 -31 -40 -63 -51 -33 -10 -52 -25 -78 -61 -19 -26 -52 -59 -74 -74
-27 -18 -51 -48 -77 -96 -37 -68 -39 -70 -78 -70 -22 0 -50 3 -62 6 -25 7 -32
34 -8 34 20 0 41 37 49 85 13 74 39 139 80 197 106 149 134 211 171 371 18 82
30 106 95 192 27 36 52 76 55 88 20 77 -81 130 -136 71 -13 -14 -41 -35 -63
-46 -32 -16 -45 -33 -82 -111 -24 -51 -50 -103 -58 -117 -8 -14 -29 -56 -46
-95 -27 -60 -62 -107 -159 -210 -10 -11 -30 -28 -45 -38 -14 -10 -35 -35 -46
-57 -11 -21 -35 -48 -55 -60 -19 -12 -44 -35 -56 -52 -12 -16 -34 -38 -49 -47
-15 -9 -45 -37 -65 -61 -21 -25 -50 -53 -65 -62 -15 -10 -39 -42 -55 -70 -15
-29 -41 -66 -57 -83 -29 -29 -47 -54 -145 -203 -26 -41 -67 -96 -90 -123 -24
-27 -43 -57 -43 -66 0 -40 -27 -97 -62 -132 -21 -22 -49 -64 -63 -94 -14 -32
-39 -67 -60 -84 -19 -15 -35 -34 -35 -41 0 -7 -11 -39 -24 -72 -22 -54 -55
-95 -154 -192 -13 -13 -52 -51 -86 -85 -35 -35 -68 -63 -74 -63 -6 0 -20 -17
-33 -37 -12 -21 -47 -64 -78 -95 -31 -32 -65 -67 -76 -78 -30 -32 -135 -122
-177 -153 -21 -16 -38 -33 -38 -40 0 -7 -12 -34 -25 -62 l-25 -50 37 -30 c54
-42 93 -83 133 -140 34 -48 37 -50 89 -53 34 -2 74 4 114 17 33 12 82 21 107
21 53 0 150 -23 183 -44 43 -27 190 -44 334 -38 44 2 57 7 90 38 21 20 53 48
70 61 18 14 49 47 68 74 20 27 47 54 60 59 14 5 28 16 31 25 7 18 65 55 87 55
16 0 47 -26 47 -39 0 -4 -21 -29 -46 -56 l-47 -48 6 -65 c4 -36 11 -70 15 -74
16 -16 129 -27 189 -18 70 9 192 -8 313 -46 181 -56 218 -62 401 -74 214 -14
334 -20 1174 -60 199 -10 285 -10 365 -2 58 7 155 12 215 12 61 0 144 5 185
11 41 5 137 10 212 9 142 -1 236 15 308 50 96 48 191 67 362 74 92 4 211 14
265 22 54 8 136 19 183 25 183 21 251 65 260 167 l5 57 35 -1 c19 0 91 -9 160
-18 137 -20 269 -17 316 5 27 13 29 18 32 81 3 64 2 67 -33 104 -20 22 -45 55
-55 75 -10 19 -26 42 -36 49 -9 8 -41 48 -72 89 -30 41 -69 90 -86 109 -17 18
-41 51 -52 73 -12 22 -41 61 -64 87 -78 89 -129 157 -166 222 -21 36 -54 83
-75 106 -20 23 -42 51 -49 64 -6 12 -63 74 -126 137 -63 63 -114 117 -114 122
0 4 -19 18 -42 31 -48 27 -81 56 -221 196 -176 178 -217 221 -217 233 0 7 -18
29 -41 49 -22 21 -50 55 -62 77 -13 23 -38 47 -62 59 -28 15 -48 36 -67 71
-14 28 -33 57 -41 65 -26 28 -65 105 -72 143 -4 20 -25 65 -46 98 -42 65 -73
146 -84 222 -5 29 -18 61 -35 82 -24 30 -67 122 -93 196 -6 17 -48 29 -103 29
-31 0 -33 -3 -47 -52z m-2415 -1195 c-6 -82 -37 -136 -57 -103 -4 6 -3 44 0
85 7 73 8 75 34 75 27 0 28 0 23 -57z m-88 -151 c5 -2 6 -32 2 -65 -10 -98
-43 -129 -111 -107 -39 13 -41 17 -20 44 8 11 15 34 15 50 0 17 9 46 20 64 19
30 24 33 53 27 18 -4 36 -10 41 -13z m3845 -1066 c26 -27 25 -63 -2 -80 -14
-9 -22 -6 -42 19 -29 36 -30 43 -8 67 21 23 25 23 52 -6z m117 -127 c13 -15
16 -24 8 -36 -16 -25 -26 -25 -59 1 -25 20 -28 26 -16 40 18 22 44 20 67 -5z
m144 -170 c0 -47 -15 -89 -33 -89 -12 0 -67 112 -67 137 0 6 10 19 22 27 21
15 24 14 50 -11 21 -20 28 -36 28 -64z"/>
<path d="M13805 8915 c-31 -30 -31 -31 2 -48 23 -13 33 -13 70 0 24 8 43 16
43 18 0 2 -20 14 -45 28 l-44 25 -26 -23z"/>
<path d="M18085 8909 c-44 -10 -87 -20 -95 -21 -8 -2 33 -12 92 -22 100 -16
108 -16 139 0 l33 17 -28 23 c-31 28 -34 28 -141 3z"/>
<path d="M17075 8902 l-39 -18 47 -14 c43 -11 50 -11 64 3 13 13 14 19 3 31
-16 20 -26 20 -75 -2z"/>
<path d="M12682 8898 c-24 -5 -42 -11 -40 -13 14 -14 136 -23 182 -13 l51 11
-35 13 c-41 15 -98 16 -158 2z"/>
<path d="M14440 8897 l-85 -11 50 -7 c62 -9 180 -9 220 0 l30 7 -40 7 c-75 14
-90 14 -175 4z"/>
<path d="M17676 8897 l-29 -13 40 -12 c32 -10 48 -9 79 1 l38 14 -34 11 c-41
15 -57 14 -94 -1z"/>
<path d="M15326 8893 c-16 -4 -14 -7 10 -22 26 -16 34 -16 73 -4 24 7 56 14
70 14 37 2 -55 18 -99 17 -19 0 -43 -2 -54 -5z"/>
<path d="M16205 8891 c-69 -6 -69 -6 50 -14 66 -4 132 -10 147 -12 14 -2 31 2
37 9 9 11 -1 14 -50 20 -65 6 -70 6 -184 -3z"/>
<path d="M11233 8883 c9 -2 25 -2 35 0 9 3 1 5 -18 5 -19 0 -27 -2 -17 -5z"/>
<path d="M11843 8883 c20 -2 54 -2 75 0 20 2 3 4 -38 4 -41 0 -58 -2 -37 -4z"/>
<path d="M12318 8883 c12 -2 30 -2 40 0 9 3 -1 5 -23 4 -22 0 -30 -2 -17 -4z"/>
<path d="M13008 8883 c12 -2 30 -2 40 0 9 3 -1 5 -23 4 -22 0 -30 -2 -17 -4z"/>
<path d="M13183 8883 c15 -2 39 -2 55 0 15 2 2 4 -28 4 -30 0 -43 -2 -27 -4z"/>
<path d="M11555 8439 c-22 -4 -67 -11 -100 -15 l-60 -7 40 -14 c33 -12 60 -12
149 -4 60 6 110 12 112 14 1 1 -21 9 -49 18 -34 10 -66 12 -92 8z"/>
<path d="M11781 8429 c-69 -13 -70 -15 -7 -29 50 -10 61 -10 73 3 14 13 13 16
-3 24 -11 6 -38 6 -63 2z"/>
<path d="M15802 8426 l-24 -13 27 -17 c25 -17 30 -17 103 0 l77 17 -60 13
c-75 16 -94 16 -123 0z"/>
<path d="M10940 8421 l-55 -6 40 -9 c51 -10 141 -9 180 3 28 9 26 9 -20 10
-27 1 -59 3 -70 5 -11 2 -45 0 -75 -3z"/>
<path d="M14060 8420 c0 -5 5 -10 10 -10 6 0 10 5 10 10 0 6 -4 10 -10 10 -5
0 -10 -4 -10 -10z"/>
<path d="M14645 8420 c-14 -23 10 -29 74 -20 71 10 91 20 40 20 -19 0 -50 3
-70 6 -23 4 -39 2 -44 -6z"/>
<path d="M15232 8423 c-10 -4 -10 -8 -1 -19 7 -9 31 -14 68 -14 60 0 88 11 77
29 -7 11 -119 14 -144 4z"/>
<path d="M16882 8423 c-9 -4 -10 -8 -2 -18 9 -11 18 -11 43 -3 27 10 29 12 11
19 -22 9 -34 9 -52 2z"/>
<path d="M13137 8413 c18 -2 50 -2 70 0 21 2 7 4 -32 4 -38 0 -55 -2 -38 -4z"/>
<path d="M17148 8413 c23 -2 59 -2 80 0 20 2 1 4 -43 4 -44 0 -61 -2 -37 -4z"/>
<path d="M5784 8233 c-36 -67 -49 -88 -79 -128 -8 -11 -26 -61 -40 -110 -20
-71 -33 -97 -59 -121 -30 -27 -34 -39 -41 -102 -5 -57 -4 -75 9 -93 15 -22 16
-22 40 32 24 55 40 74 79 94 12 6 28 33 40 68 13 40 34 74 68 110 32 33 54 69
63 98 8 26 21 60 29 76 27 52 -10 143 -59 143 -7 0 -30 -30 -50 -67z"/>
<path d="M2281 7475 c-1 -323 -8 -713 -16 -880 -9 -204 -11 -340 -5 -424 5
-71 5 -223 0 -360 -12 -301 -20 -286 143 -253 138 28 340 30 658 6 303 -22
797 -23 1083 -2 126 10 231 19 233 22 14 13 -304 21 -802 18 -1273 -8 -1160
-10 -1192 14 -15 11 -39 36 -52 55 l-23 34 6 330 c4 190 2 457 -4 630 -6 165
-15 545 -19 845 l-8 545 -2 -580z"/>
<path d="M15060 7960 c-56 -15 -62 -18 -44 -28 11 -6 43 -14 71 -18 42 -5 51
-3 56 11 6 13 -8 59 -16 54 -1 -1 -31 -9 -67 -19z"/>
<path d="M15567 7960 l-29 -18 23 -16 c13 -9 31 -16 41 -16 21 0 68 21 68 30
0 5 -67 41 -73 39 -1 0 -15 -9 -30 -19z"/>
<path d="M14514 7955 c-19 -15 -19 -15 0 -30 11 -8 23 -15 27 -15 11 0 21 38
14 50 -8 14 -18 13 -41 -5z"/>
<path d="M11573 7952 c-8 -5 -7 -14 6 -31 l19 -24 11 22 c18 33 -4 53 -36 33z"/>
<path d="M15916 7951 c-18 -7 -17 -9 10 -18 22 -8 36 -7 53 2 l23 12 -23 6
c-29 8 -38 8 -63 -2z"/>
<path d="M10870 7943 c1 -26 17 -32 57 -20 63 19 63 27 0 27 -31 0 -57 -3 -57
-7z"/>
<path d="M13695 7940 c3 -5 10 -10 16 -10 5 0 9 5 9 10 0 6 -7 10 -16 10 -8 0
-12 -4 -9 -10z"/>
<path d="M14180 7940 c0 -5 5 -10 10 -10 6 0 10 5 10 10 0 6 -4 10 -10 10 -5
0 -10 -4 -10 -10z"/>
<path d="M18140 7941 c0 -11 48 -24 60 -16 21 13 8 25 -25 25 -19 0 -35 -4
-35 -9z"/>
<path d="M17218 7486 c-24 -17 -23 -28 5 -54 22 -20 26 -21 85 -9 34 7 70 20
79 30 16 16 16 18 -2 32 -26 19 -143 20 -167 1z"/>
<path d="M10860 7471 c0 -5 7 -14 15 -21 11 -9 25 -10 65 0 27 7 47 16 44 21
-7 12 -124 12 -124 0z"/>
<path d="M14056 7472 c-2 -4 0 -14 5 -22 8 -13 10 -13 18 0 10 15 6 30 -9 30
-5 0 -11 -4 -14 -8z"/>
<path d="M9817 6818 c-4 -147 -16 -387 -27 -535 -11 -147 -20 -320 -21 -383 0
-63 -4 -137 -7 -165 l-7 -50 -75 -37 -75 -37 -650 -12 c-357 -6 -798 -10 -980
-8 -181 1 -364 1 -405 -1 l-75 -3 105 -12 c77 -9 134 -10 215 -3 123 12 892 5
1425 -12 256 -8 349 -14 393 -27 49 -14 70 -15 124 -6 100 18 103 22 103 175
0 71 -5 274 -11 451 -5 177 -13 459 -17 627 l-7 305 -8 -267z"/>
<path d="M17580 7000 c-12 -8 -11 -10 8 -10 12 0 22 5 22 10 0 13 -11 13 -30
0z"/>
<path d="M10872 6905 c-10 -22 -9 -25 13 -31 14 -3 42 -2 62 3 l38 9 -42 22
c-53 28 -57 27 -71 -3z"/>
<path d="M14090 6910 c-98 -18 -99 -26 -2 -34 50 -4 103 -4 117 0 25 6 25 7 9
25 -18 20 -47 22 -124 9z"/>
<path d="M11229 6889 c-10 -6 -7 -9 14 -9 29 0 35 5 14 13 -8 3 -20 1 -28 -4z"/>
<path d="M13838 6883 c6 -2 18 -2 25 0 6 3 1 5 -13 5 -14 0 -19 -2 -12 -5z"/>
<path d="M15104 6538 c-21 -10 -21 -12 -9 -65 7 -30 17 -59 22 -64 4 -4 25 -6
46 -2 l37 6 0 58 c0 51 -2 58 -22 64 -45 13 -53 13 -74 3z"/>
<path d="M12749 6484 c-13 -7 -40 -13 -60 -14 -26 0 -43 -8 -65 -31 l-29 -30
25 -19 c31 -24 37 -24 114 -4 76 21 268 21 345 1 38 -11 63 -12 85 -5 17 5 85
10 151 12 144 4 182 14 114 31 -30 8 -130 11 -302 9 l-256 -3 -48 33 c-45 31
-51 33 -74 20z"/>
<path d="M11660 6450 c-35 -15 -72 -19 -161 -19 -64 -1 -137 -4 -163 -7 -85
-12 -27 -24 117 -24 76 0 169 -5 206 -11 69 -12 163 -6 191 11 12 7 12 12 -4
28 -16 18 -37 25 -116 36 -14 2 -45 -4 -70 -14z"/>
<path d="M13880 6463 c-19 -2 -62 -10 -94 -19 -42 -11 -78 -14 -122 -9 -77 8
-187 -12 -157 -29 10 -6 68 -11 128 -12 61 0 157 -4 215 -9 87 -6 108 -4 125
8 20 15 20 15 -1 44 -22 29 -35 33 -94 26z"/>
<path d="M10863 6435 l-25 -20 22 -28 c21 -27 25 -28 79 -22 31 4 79 13 106
20 28 7 73 17 100 21 65 9 57 11 -115 32 -143 18 -143 18 -167 -3z"/>
<path d="M12265 6438 l-28 -22 28 -23 c30 -27 42 -26 62 3 11 17 10 23 -3 42
-19 27 -24 27 -59 0z"/>
<path d="M16397 6443 c-45 -51 0 -70 125 -53 51 7 99 15 106 19 8 4 -25 15
-75 26 -140 28 -137 28 -156 8z"/>
<path d="M17335 6452 c-50 -4 -177 -33 -172 -39 14 -14 93 -23 192 -22 164 2
194 0 223 -14 18 -9 40 -11 67 -6 22 4 71 8 108 8 67 1 154 17 170 31 5 4 -15
16 -44 25 -41 14 -69 16 -133 11 -202 -17 -253 -17 -316 -4 -36 7 -78 12 -95
10z"/>
<path d="M15540 6425 l-45 -12 30 -9 c39 -12 218 -12 270 0 l40 9 -65 13 c-81
16 -171 16 -230 -1z"/>
<path d="M14300 6409 c0 -5 5 -7 10 -4 6 3 10 8 10 11 0 2 -4 4 -10 4 -5 0
-10 -5 -10 -11z"/>
<path d="M16735 6410 c22 -5 44 -4 50 1 5 5 -11 9 -40 8 l-50 -1 40 -8z"/>
<path d="M18048 6413 c6 -2 18 -2 25 0 6 3 1 5 -13 5 -14 0 -19 -2 -12 -5z"/>
<path d="M16643 6037 c-14 -30 -58 -51 -151 -72 -40 -9 -70 -20 -67 -25 17
-27 162 -40 475 -39 19 0 107 -1 195 -1 146 0 162 2 185 20 l25 20 -25 21
c-23 20 -32 21 -140 15 -63 -4 -122 -7 -130 -7 -158 3 -259 10 -276 19 -12 6
-33 25 -47 42 -14 16 -28 30 -30 30 -2 0 -9 -11 -14 -23z"/>
<path d="M10853 5988 c-18 -22 -33 -44 -33 -48 0 -15 52 -50 74 -50 11 0 41 6
66 14 34 10 61 11 104 5 45 -8 71 -6 117 7 32 9 59 20 59 23 0 10 -123 41
-163 41 -19 0 -65 11 -101 25 -37 14 -72 25 -79 24 -6 0 -27 -18 -44 -41z"/>
<path d="M13553 5976 c-23 -17 -42 -34 -42 -37 -1 -3 17 -11 40 -18 53 -16 73
-2 63 43 -3 17 -9 34 -13 37 -3 3 -25 -8 -48 -25z"/>
<path d="M14830 5974 c-54 -25 -56 -25 -112 -9 -51 14 -61 14 -92 1 -46 -19
-45 -31 0 -46 28 -10 49 -10 94 0 50 11 65 10 106 -4 59 -20 181 -21 253 -2
35 9 65 11 89 5 21 -4 73 -11 117 -15 72 -6 82 -4 98 14 15 16 16 24 7 41 -13
25 -52 27 -180 7 -82 -13 -88 -12 -149 10 -84 32 -158 31 -231 -2z"/>
<path d="M17995 5975 c-28 -8 -68 -11 -92 -8 -43 6 -133 -13 -133 -27 0 -15
64 -30 129 -30 36 -1 91 -7 122 -14 51 -12 60 -12 109 8 29 12 55 27 57 32 5
14 -87 54 -119 53 -13 0 -45 -7 -73 -14z"/>
<path d="M11699 5964 c-9 -11 -10 -21 -3 -31 20 -31 424 -25 424 7 0 20 -154
35 -234 22 -44 -7 -72 -6 -110 4 -64 17 -61 17 -77 -2z"/>
<path d="M13942 5974 c-24 -11 -32 -41 -20 -76 18 -55 25 -59 58 -28 46 43
103 54 223 44 82 -7 110 -6 145 6 23 8 42 18 42 21 0 16 -65 23 -210 24 -85 0
-171 3 -190 7 -19 4 -41 5 -48 2z"/>
<path d="M15706 5958 c-3 -13 -2 -26 2 -30 16 -16 338 -30 418 -20 73 10 106
24 91 38 -19 19 -158 33 -323 34 -180 0 -182 0 -188 -22z"/>
<path d="M11303 5956 c-29 -5 -53 -13 -53 -17 0 -13 104 -18 118 -5 23 23 -7
33 -65 22z"/>
<path d="M12258 5960 c-55 -34 8 -47 216 -44 173 2 207 8 191 34 -5 8 -46 11
-139 10 -72 -2 -158 0 -191 4 -38 4 -67 3 -77 -4z"/>
<path d="M13124 5948 c-5 -8 20 -15 86 -22 51 -5 143 7 120 17 -22 9 -201 13
-206 5z"/>
<path d="M17600 5940 c0 -5 7 -10 16 -10 8 0 12 5 9 10 -3 6 -10 10 -16 10 -5
0 -9 -4 -9 -10z"/>
<path d="M5949 5606 c-3 -3 -342 -8 -753 -10 -411 -2 -750 -6 -752 -9 -11 -11
212 -19 441 -16 363 4 869 4 965 -1 113 -6 220 -4 485 7 223 10 234 17 25 18
-63 1 -180 5 -260 9 -80 5 -148 6 -151 2z"/>
<path d="M6738 5583 c28 -2 76 -2 105 0 28 2 5 3 -53 3 -58 0 -81 -1 -52 -3z"/>
<path d="M11294 5559 c-33 -9 -69 -21 -80 -26 -10 -6 -41 -16 -69 -22 -51 -13
-95 -35 -95 -49 0 -5 16 -27 35 -49 l35 -41 53 14 c28 7 77 14 107 14 30 0 87
5 125 10 39 5 97 5 130 1 65 -9 101 -1 149 33 l30 20 -50 22 c-35 16 -69 23
-118 23 -59 1 -79 6 -130 34 l-61 33 -61 -17z"/>
<path d="M10833 5067 c-68 -46 -75 -72 -33 -137 45 -70 68 -80 189 -80 138 0
147 4 156 78 10 87 2 97 -91 110 -43 6 -97 21 -125 36 l-49 25 -47 -32z"/>
<path d="M2265 5045 c-28 -71 -3 -165 44 -165 34 0 48 10 60 43 20 52 13 79
-31 124 -23 24 -45 43 -49 43 -4 0 -15 -20 -24 -45z"/>
<path d="M5184 5063 c-27 -12 -54 -23 -60 -23 -27 0 -43 -46 -35 -101 4 -30
10 -60 14 -66 8 -13 389 -9 516 6 58 7 106 7 152 0 36 -5 91 -9 120 -7 l54 3
28 60 29 59 -25 22 c-23 19 -33 21 -153 16 -127 -4 -130 -4 -184 25 l-56 30
-44 -19 c-25 -11 -79 -24 -121 -30 -74 -11 -76 -11 -130 18 l-55 30 -50 -23z"/>
<path d="M14718 5054 c-49 -21 -64 -23 -117 -16 -49 7 -69 5 -100 -9 -21 -9
-42 -22 -45 -28 -4 -6 0 -36 9 -66 23 -80 36 -84 220 -77 83 3 214 5 292 3 84
-1 151 3 162 9 13 6 24 29 31 67 12 54 11 58 -10 75 -16 13 -40 18 -84 18 -42
0 -80 8 -121 25 -78 32 -158 32 -237 -1z"/>
<path d="M15685 5070 c-11 -4 -52 -18 -92 -30 -40 -12 -79 -27 -88 -34 -9 -7
-17 -35 -21 -72 l-7 -61 63 -13 c59 -13 68 -12 132 10 68 23 69 23 181 7 62
-9 134 -25 161 -36 59 -26 63 -26 121 0 40 18 64 20 168 19 169 -3 163 -4 205
34 l38 35 54 -18 c30 -10 59 -16 64 -13 4 2 17 25 28 49 l20 45 -24 25 c-21
22 -28 24 -68 17 -25 -5 -106 -9 -180 -9 -74 0 -183 -5 -241 -9 -133 -11 -305
6 -407 40 -80 26 -78 26 -107 14z"/>
<path d="M6475 5049 c-16 -5 -66 -16 -109 -24 -43 -8 -81 -17 -84 -19 -2 -3
-2 -20 2 -38 5 -25 17 -40 53 -63 42 -26 59 -30 133 -33 85 -4 85 -4 132 33
45 35 68 81 54 104 -8 12 -111 51 -134 50 -9 0 -30 -5 -47 -10z"/>
<path d="M7640 5044 c-69 -17 -187 -19 -310 -5 -74 8 -108 7 -152 -3 -41 -9
-73 -10 -117 -4 -52 8 -67 7 -99 -9 -37 -18 -37 -19 -40 -84 l-3 -66 38 -15
c70 -26 530 -6 607 26 44 18 123 15 209 -10 45 -12 77 -10 77 5 0 4 -13 21
-30 39 -16 18 -30 43 -30 56 0 23 -28 55 -67 75 -12 6 -23 11 -25 10 -2 -1
-28 -7 -58 -15z"/>
<path d="M12755 5048 c-11 -6 -30 -19 -41 -30 -21 -19 -21 -22 -9 -76 21 -87
37 -96 165 -88 58 4 204 9 325 12 253 5 265 6 340 40 49 23 59 24 93 14 20 -7
48 -19 61 -27 17 -11 38 -14 75 -9 32 4 97 -2 176 -15 93 -15 133 -17 152 -10
26 10 98 108 98 134 0 8 -25 21 -56 31 -65 20 -264 24 -353 7 -93 -19 -297
-13 -361 9 -72 25 -152 25 -226 -1 -65 -22 -124 -21 -257 7 -81 17 -154 18
-182 2z"/>
<path d="M3190 5035 c-123 -17 -341 -22 -456 -11 -120 12 -149 -1 -157 -71 -3
-27 -7 -55 -9 -62 -4 -20 34 -29 121 -30 l74 -1 51 55 c28 30 58 55 66 55 8 0
38 -11 67 -24 28 -14 77 -28 109 -32 32 -4 71 -15 88 -25 51 -29 190 -45 264
-29 l61 13 6 46 c4 25 9 53 11 62 10 35 -71 70 -156 68 -25 -1 -88 -7 -140
-14z"/>
<path d="M3774 5027 c-25 -22 -28 -29 -25 -83 2 -51 6 -63 35 -92 23 -24 49
-37 92 -47 l59 -14 64 42 63 41 102 -3 c135 -5 279 -5 346 -1 30 2 101 -1 156
-5 101 -8 102 -8 118 17 9 14 19 48 23 76 5 46 3 51 -20 67 -21 14 -41 15
-114 11 -213 -14 -475 -17 -578 -7 -60 6 -151 13 -201 16 -87 6 -93 5 -120
-18z"/>
<path d="M8637 5044 c-3 -4 -272 -16 -388 -18 -99 -1 -112 -11 -103 -80 12
-96 29 -103 110 -45 l41 28 19 -21 c39 -43 100 -53 329 -49 22 0 121 2 221 3
l181 3 42 38 c22 20 50 37 61 37 12 0 35 6 53 14 55 22 149 0 205 -49 47 -41
69 -45 147 -31 28 6 39 16 64 60 17 29 31 56 31 59 0 13 -43 29 -109 41 -63
12 -78 11 -182 -10 -102 -21 -123 -23 -199 -13 -47 6 -150 10 -230 10 -86 -1
-174 5 -217 13 -40 7 -74 12 -76 10z"/>
<path d="M17320 5040 c-74 -3 -142 -10 -150 -15 -8 -5 -50 -9 -95 -9 -90 -1
-94 -5 -75 -75 l11 -41 53 30 c29 17 58 30 64 30 7 0 22 -20 34 -44 13 -27 34
-52 54 -62 31 -17 38 -17 171 4 76 12 157 22 179 22 27 0 46 6 55 17 17 20 89
73 100 73 4 0 21 -22 38 -49 43 -70 54 -74 185 -67 61 4 141 3 179 -3 53 -8
78 -6 122 6 62 18 69 27 79 95 6 42 5 48 -16 62 -52 34 -107 40 -230 24 -76
-9 -139 -12 -181 -7 -43 5 -82 4 -121 -5 -49 -12 -73 -11 -184 5 -70 10 -129
18 -132 17 -3 -1 -66 -4 -140 -8z"/>
<path d="M11443 5020 c-29 -17 -33 -25 -33 -64 0 -57 13 -91 43 -111 21 -14
32 -14 113 0 149 26 149 26 164 96 12 54 11 61 -5 79 -16 18 -31 20 -134 20
-98 0 -121 -3 -148 -20z"/>
<path d="M12014 5017 c-38 -20 -39 -27 -6 -97 25 -52 57 -59 125 -27 54 24 56
25 72 7 31 -34 93 -48 153 -35 29 7 55 14 58 17 2 3 10 31 16 62 19 89 16 91
-203 91 -154 0 -185 -3 -215 -18z"/>
<path d="M14940 4658 c-44 -12 -67 -33 -91 -80 -38 -75 -17 -214 37 -235 18
-7 87 23 110 48 15 17 18 16 67 -7 44 -21 61 -23 114 -18 44 4 81 1 130 -12
84 -22 270 -22 358 0 33 8 63 12 67 10 4 -2 54 -9 112 -14 83 -8 119 -7 166 3
52 12 69 12 123 0 44 -11 95 -14 181 -10 112 5 119 7 147 33 26 25 29 34 29
91 0 54 -4 68 -24 88 l-24 24 -174 -7 c-200 -7 -651 -9 -753 -2 -38 2 -113 1
-166 -4 -85 -8 -103 -6 -160 13 -35 11 -86 37 -113 56 -51 36 -76 40 -136 23z"/>
<path d="M3410 4604 c-50 -30 -63 -33 -135 -34 -52 -1 -96 -7 -125 -19 -42
-18 -46 -22 -64 -81 -18 -61 -18 -62 1 -88 27 -36 57 -41 293 -43 186 -2 208
-5 242 -23 40 -22 46 -44 32 -114 -6 -28 -11 -31 -103 -56 -138 -37 -174 -35
-308 19 -61 25 -121 45 -131 45 -11 0 -53 -11 -93 -24 -122 -40 -191 -48 -466
-52 -283 -4 -303 -7 -337 -58 -12 -19 -16 -50 -16 -130 0 -127 -1 -126 130
-126 64 0 89 -3 84 -11 -8 -14 -241 -2 -323 16 -31 7 -96 30 -146 51 -49 20
-126 49 -170 64 l-80 27 -110 -40 c-101 -35 -116 -38 -177 -32 -51 5 -81 2
-124 -12 l-57 -18 -16 25 c-9 13 -34 47 -56 75 l-40 50 -6 -40 c-4 -22 -10
-128 -14 -235 -4 -107 -9 -206 -12 -220 -2 -14 -6 -182 -8 -375 -3 -383 13
-655 54 -899 12 -71 24 -163 27 -205 11 -141 33 -174 124 -185 30 -3 4081 -6
9002 -6 6832 0 8953 3 8973 12 39 18 61 65 75 158 7 47 20 126 31 175 33 162
49 409 50 765 0 184 -2 353 -5 375 -3 22 -11 158 -17 303 -6 145 -14 283 -17
307 l-7 44 -58 -70 -59 -69 -51 0 c-29 0 -101 12 -162 26 -77 19 -134 26 -188
25 -47 -1 -100 4 -132 14 -61 17 -90 13 -210 -29 -38 -14 -73 -22 -77 -18 -4
4 -14 50 -22 103 -16 106 -26 129 -68 154 -26 15 -59 16 -281 14 -210 -2 -266
1 -337 15 -47 10 -92 22 -101 27 -9 4 -20 5 -25 0 -5 -4 -31 -16 -58 -26 -44
-16 -57 -17 -112 -6 -54 11 -73 11 -136 -4 -111 -25 -405 -6 -484 31 -23 11
-38 13 -51 6 -10 -5 -38 -13 -63 -17 -93 -15 -125 -47 -140 -141 -10 -61 -39
-101 -99 -137 l-30 -18 -20 38 c-21 43 -46 68 -76 77 -11 3 -40 30 -64 61 -52
66 -114 99 -180 97 -623 -17 -615 -16 -651 -37 -19 -12 -43 -36 -52 -54 -9
-18 -25 -43 -36 -55 -10 -11 -29 -40 -42 -63 -43 -78 -70 -67 -95 40 -9 40
-21 84 -27 100 -15 38 -57 71 -112 87 -40 11 -55 11 -104 -3 -31 -9 -110 -19
-176 -22 -126 -6 -174 -20 -199 -58 -16 -26 -47 -145 -47 -182 0 -20 -8 -29
-35 -41 -79 -33 -125 -13 -125 54 0 43 -39 142 -69 175 -33 36 -107 58 -170
50 -26 -3 -108 0 -182 6 -117 10 -141 10 -188 -4 -50 -15 -59 -15 -123 1 -56
13 -88 15 -157 9 -136 -13 -221 -10 -281 10 -30 9 -62 23 -70 30 -8 7 -43 15
-77 18 -54 6 -64 4 -76 -13 -17 -25 -99 -60 -140 -60 -48 0 -109 -19 -134 -42
-26 -24 -36 -76 -35 -183 1 -86 -6 -98 -48 -88 -45 11 -84 52 -105 111 -17 49
-26 60 -63 79 -24 12 -65 42 -91 67 -38 34 -58 46 -92 50 -24 3 -79 10 -122
16 -106 14 -181 13 -322 -5 -161 -20 -231 -19 -307 5 -81 25 -163 26 -227 0
-58 -23 -137 -26 -316 -15 -109 7 -139 5 -187 -9 -74 -21 -92 -45 -107 -143
-22 -141 -29 -149 -118 -119 -54 18 -103 11 -179 -29 -73 -37 -104 -36 -304
10 -58 13 -117 27 -131 29 -32 7 -45 37 -55 126 -13 125 -24 131 -289 142
-110 5 -288 11 -395 13 -107 2 -204 4 -215 5 -11 1 -132 -3 -270 -9 -137 -7
-302 -11 -365 -9 -152 3 -237 3 -470 -1 -162 -2 -202 -6 -237 -21 -52 -23 -61
-40 -70 -132 -4 -40 -9 -64 -11 -53 -6 32 -31 52 -70 60 -26 5 -55 24 -99 66
-34 33 -79 67 -100 75 -69 29 -253 14 -320 -27 -41 -26 -57 -73 -58 -172 0
-70 2 -80 23 -96 21 -15 22 -19 8 -30 -29 -24 -82 -30 -112 -12 -27 16 -28 19
-29 116 -1 131 -17 168 -82 197 -39 18 -65 21 -134 20 -64 -1 -102 4 -144 18
-31 11 -85 22 -119 25 -57 5 -65 4 -115 -28 l-54 -35 -56 20 c-31 10 -84 25
-117 32 -57 12 -66 12 -116 -9 -48 -20 -73 -22 -243 -23 -215 -2 -229 -6 -253
-78 -17 -50 -19 -152 -3 -181 12 -24 19 -26 111 -40 l55 -9 -45 -15 c-37 -12
-65 -14 -150 -7 -58 5 -120 11 -138 14 -31 5 -33 7 -19 22 8 9 24 38 37 63 21
43 22 51 10 100 -24 109 -49 150 -105 174 -27 12 -35 10 -88 -17 l-59 -30
-192 3 c-217 3 -246 -4 -272 -67 -13 -30 -18 -34 -53 -34 -22 0 -45 -2 -53 -5
-8 -3 -22 14 -38 47 -21 44 -32 55 -63 65 -51 17 -169 20 -352 9 -148 -8 -152
-8 -198 15 l-47 25 25 50 c21 42 34 54 82 78 58 29 58 29 293 33 129 2 323 4
431 4 l196 1 63 -32 c56 -28 65 -30 94 -19 46 18 95 68 102 104 3 17 0 56 -8
85 -13 52 -15 55 -63 73 -39 15 -65 18 -118 13 -39 -4 -119 0 -190 9 -90 11
-138 12 -182 5 -87 -14 -239 -12 -320 5 -85 18 -182 19 -255 1 -67 -16 -173
-6 -245 22 -27 10 -77 22 -110 25 -55 5 -64 2 -115 -29z m2455 -784 c17 -6 15
-9 -17 -15 -20 -4 -47 -4 -60 1 -22 7 -22 7 -3 15 26 10 55 10 80 -1z m5253
-7 c-15 -2 -42 -2 -60 0 -18 2 -6 4 27 4 33 0 48 -2 33 -4z m3789 1 c-3 -3
-12 -4 -19 -1 -8 3 -5 6 6 6 11 1 17 -2 13 -5z m-10843 -86 c5 -23 3 -28 -13
-28 -17 0 -18 3 -8 30 6 16 12 28 13 27 0 -1 4 -14 8 -29z m-1509 -18 c17 -7
14 -9 -13 -9 -20 -1 -31 3 -27 9 7 12 13 12 40 0z"/>
<path d="M8330 4631 c-61 -8 -201 -63 -222 -88 -7 -9 -23 -43 -35 -77 l-22
-61 22 -24 c40 -43 79 -53 191 -46 55 4 140 2 188 -4 100 -12 175 2 211 38 32
32 37 146 8 183 -29 36 -96 57 -256 81 -16 3 -55 2 -85 -2z"/>
<path d="M14100 4631 c-25 -4 -64 -17 -88 -29 -60 -32 -174 -52 -226 -40 -49
11 -95 5 -129 -17 -24 -15 -24 -17 -12 -77 19 -89 36 -101 148 -111 162 -13
574 -19 615 -7 22 5 47 19 57 30 18 19 18 22 -1 78 -29 86 -62 114 -181 151
-104 32 -109 33 -183 22z"/>
<path d="M5515 4613 c-70 -14 -184 -47 -208 -60 -31 -16 -41 -36 -51 -104 -8
-51 3 -67 63 -92 29 -12 41 -12 90 0 43 12 67 12 111 4 30 -6 110 -14 177 -17
118 -7 124 -6 158 17 45 31 48 40 25 91 -11 24 -20 50 -20 59 0 34 -45 58
-153 84 -101 24 -147 28 -192 18z"/>
<path d="M6472 4602 c-46 -13 -63 -14 -120 -2 l-66 13 -28 -34 c-31 -36 -36
-76 -18 -141 9 -31 19 -41 68 -64 55 -26 64 -27 256 -30 217 -4 226 -6 290
-73 31 -33 49 -31 104 9 55 40 119 47 449 48 301 0 314 1 351 22 55 31 63 49
55 120 -5 55 -10 64 -41 88 -41 31 6 29 -602 22 -355 -5 -367 -4 -447 18 -94
25 -174 27 -251 4z"/>
<path d="M11229 4606 c-20 -7 -52 -22 -70 -34 -30 -18 -40 -19 -89 -10 -80 15
-237 6 -278 -16 -33 -17 -33 -17 -30 -84 3 -63 5 -68 36 -89 48 -32 110 -38
226 -22 87 12 109 12 158 0 107 -28 185 18 209 123 11 53 11 60 -9 102 -21 43
-23 44 -69 44 -27 -1 -64 -7 -84 -14z"/>
<path d="M11802 4596 c-80 -17 -109 -28 -129 -49 -25 -25 -26 -28 -17 -93 12
-91 27 -101 160 -110 141 -9 227 1 263 32 25 21 31 35 36 88 9 81 -7 107 -83
136 -65 25 -100 24 -230 -4z"/>
<path d="M2251 4572 c-28 -27 -31 -37 -31 -89 0 -35 7 -72 18 -93 26 -53 66
-62 262 -64 154 -1 169 1 218 23 61 27 77 52 87 132 10 82 -5 90 -204 100 -86
4 -193 11 -238 15 l-82 7 -30 -31z"/>
<path d="M9270 4579 c-102 -4 -203 -6 -225 -3 -64 9 -106 -25 -127 -105 -15
-56 -15 -67 -3 -91 27 -53 58 -56 395 -48 342 9 414 16 466 48 l35 23 -29 31
c-16 17 -37 46 -47 64 -18 37 -52 55 -135 70 -90 17 -136 19 -330 11z"/>
<path d="M12467 4567 c-50 -16 -61 -23 -73 -53 -8 -19 -17 -54 -20 -77 -5 -36
-2 -48 17 -70 35 -40 92 -46 370 -42 298 4 480 19 513 41 30 19 46 62 46 125
0 41 -4 51 -32 74 -32 27 -33 27 -133 19 -55 -5 -120 -8 -145 -7 -25 1 -144 3
-264 5 -189 3 -228 0 -279 -15z"/>
<path d="M16863 4570 c-40 -24 -57 -51 -74 -117 -11 -46 -10 -54 5 -78 10 -15
33 -33 51 -41 44 -18 153 -18 229 0 79 19 95 41 96 127 0 93 -14 105 -149 118
-130 14 -120 14 -158 -9z"/>
<path d="M18135 4578 c-27 -5 -54 -9 -60 -8 -5 0 -118 3 -250 6 l-240 5 -33
-28 c-24 -20 -37 -44 -48 -86 -18 -70 -10 -88 49 -118 38 -20 50 -21 147 -14
58 5 143 8 190 7 47 -1 109 3 138 9 36 7 57 7 65 0 25 -20 104 -31 172 -22 57
7 72 12 93 36 22 26 24 35 19 92 -7 73 -17 94 -49 110 -32 16 -133 21 -193 11z"/>
</g>
</svg>
